<svg preserveAspectRatio="xMidYMid meet" data-bbox="18.597 23.449 362.807 83.088" viewBox="18.597 23.449 362.807 83.088" xmlns="http://www.w3.org/2000/svg" data-type="color" role="presentation" aria-hidden="true" aria-label="">
    <g>
        <path d="M60.48 23.45c-22.8-.18-41.67 18.35-41.88 41.14a41.36 41.36 0 0 0 3.68 17.53c1.49 3.28 1.53 7.04.22 10.39l-2.38 6.07c-1.01 2.58 1.34 5.21 4.01 4.5l7.32-1.93c3.45-.91 7.1-.48 10.3 1.1 5.75 2.85 12.25 4.4 19.13 4.28 22.67-.39 41-19.21 40.82-41.88-.18-22.67-18.54-41.03-41.22-41.2zM80.17 62.5l-6.33 4.9a5.031 5.031 0 0 0-1.75 5.38l2.24 7.68c.81 2.8-2.32 5.08-4.73 3.44l-6.62-4.5a5.038 5.038 0 0 0-5.66 0l-6.62 4.5c-2.41 1.64-5.55-.64-4.73-3.44l2.24-7.68c.58-1.98-.12-4.12-1.75-5.38l-6.33-4.9c-2.3-1.78-1.11-5.47 1.81-5.56l8-.25a5.017 5.017 0 0 0 4.58-3.33l2.71-7.53c.99-2.74 4.86-2.74 5.85 0l2.71 7.53c.7 1.94 2.52 3.26 4.58 3.33l8 .25c2.9.09 4.1 3.77 1.8 5.56z" fill="#f05a24" data-color="1"></path>
        <path d="M373.88 56c0-5.78-.01-11.05 0-16.33.01-2.83 1.44-4.48 3.8-4.44 2.36.04 3.71 1.67 3.72 4.54.01 16.6 0 33.19 0 49.79 0 3.01-1.35 4.72-3.72 4.76-2.26.04-3.62-1.51-3.93-4.75-5.15 4.03-10.88 5.92-17.28 5.04-6.36-.87-11.49-3.98-15.22-9.23-5.95-8.38-5.32-19.54 1.58-27.31 3.95-4.45 8.99-6.88 14.9-7.38 5.93-.49 11.18 1.43 16.15 5.31zm0 16.66c-.03-8.04-6.38-14.35-14.48-14.38-8.13-.03-14.64 6.45-14.6 14.52.05 7.92 6.58 14.41 14.53 14.43 8.06.01 14.58-6.52 14.55-14.57z" fill="#f05a24" data-color="1"></path>
        <path d="M223.29 89.86c-3.31 1.5-6.49 3.56-9.95 4.38-11.68 2.77-23.23-4.79-26.02-16.63-2.7-11.42 4.48-23.22 15.94-26.2 13.97-3.64 27.48 6.67 27.65 21.13.06 5.55.01 11.1.01 16.65 0 3.26-1.22 4.98-3.6 5.12-2.33.14-3.73-1.5-4.03-4.45zm-14.52-2.61c8.11.01 14.54-6.28 14.57-14.24.03-8.33-6.31-14.8-14.48-14.8-8.04 0-14.62 6.59-14.57 14.6.05 7.94 6.54 14.42 14.48 14.44z" fill="#f05a24" data-color="1"></path>
        <path d="M297.04 68.7c4.19 6.37 8.34 12.66 12.48 18.97 1.61 2.46 1.34 4.74-.67 6-1.98 1.24-3.92.7-5.47-1.62-3.53-5.31-7.03-10.65-10.54-15.97-.41-.63-.84-1.25-1.38-2.05-2.03 1.91-3.97 3.67-5.82 5.54-.36.37-.44 1.13-.45 1.71-.04 2.98.01 5.97-.03 8.96-.03 2.46-1.59 4.12-3.75 4.09-2.14-.03-3.77-1.71-3.78-4.14-.03-16.94-.03-33.88 0-50.82 0-2.47 1.82-4.27 3.98-4.18 2.14.09 3.54 1.73 3.54 4.3.02 9.23.01 18.47.01 27.7v2.76c.95-.89 1.48-1.39 2.01-1.9 5.29-5.12 10.57-10.25 15.86-15.37 2.14-2.07 4.17-2.24 5.78-.51 1.74 1.86 1.52 3.89-.67 5.98-3.65 3.49-7.33 6.97-11.1 10.55z" fill="#f05a24" data-color="1"></path>
        <path d="M135.29 94.76c-3.16-.07-7.55-1.18-11.12-4.42-1.1-1-1.97-2.32-2.72-3.62-.91-1.56-.66-3.14.79-4.29 1.4-1.12 2.99-1.06 4.46-.11.62.4 1.14 1.02 1.55 1.65 2.94 4.54 9.82 4.94 13.48 2.94 1.79-.98 3.1-2.29 3.22-4.5.12-2.27-1.14-3.71-2.95-4.62-1.79-.89-3.75-1.42-5.59-2.21-3.18-1.35-6.58-2.39-9.45-4.23-6.68-4.29-6.69-12.87-.29-17.63 5.46-4.07 14.47-4.26 20.01-.33 1.16.83 2.19 1.94 3.02 3.11 1.19 1.67.89 3.51-.49 4.68-1.3 1.1-2.92.99-4.43-.46-2.97-2.87-6.38-4.04-10.48-3.06-2.69.64-4.42 2.17-4.7 4.37-.28 2.14.8 4.04 3.44 5.13 3.58 1.48 7.33 2.55 10.91 4.03 3.9 1.61 7.27 3.91 8.15 8.46.95 4.93-.82 8.87-4.72 11.87-3.08 2.35-6.66 3.31-12.09 3.24z" fill="#f05a24" data-color="1"></path>
        <path d="M165.63 58.25c-3.13-.67-7.27 1.36-7.79-3.71-.2-1.9.86-3.27 2.72-3.65 1.54-.31 3.16-.26 5.07-.39v-8.44c0-1.04-.04-2.09.02-3.12.12-2.19 1.64-3.68 3.7-3.72 2.07-.03 3.8 1.58 3.86 3.82.09 3.26.02 6.53.03 9.79 0 .54.05 1.08.09 1.83 1.56 0 3.01-.04 4.44.01 2.57.08 4.28 1.7 4.2 3.92-.07 2.18-1.67 3.56-4.23 3.62-1.44.03-2.88.01-4.51.01v2.93c0 9.58.01 19.17-.01 28.75-.01 2.86-1.9 4.75-4.31 4.41-2.08-.29-3.28-1.82-3.29-4.33-.02-9.72-.01-19.44-.01-29.16.02-.85.02-1.67.02-2.57z" fill="#f05a24" data-color="1"></path>
        <path d="M250.17 56.51c4-3.3 8.2-5.3 13.05-5.75 1.1-.1 2.24-.21 3.32-.04 2.09.32 3.26 1.94 3.1 4.01-.15 1.86-1.57 3.3-3.6 3.35-3.13.07-6.04.77-8.68 2.48-4.66 3.02-7.09 7.37-7.24 12.87-.15 5.48-.03 10.97-.05 16.46-.01 2.69-1.4 4.38-3.63 4.44-2.28.06-3.9-1.72-3.91-4.43-.02-11.46-.01-22.92-.01-34.38 0-3.13 1.4-4.91 3.83-4.92 2.35-.02 3.63 1.61 3.72 4.74.01.25.04.52.1 1.17z" fill="#f05a24" data-color="1"></path>
        <path d="M320.75 72.33c0-5.9-.05-11.8.02-17.7.04-3.19 3.15-5.19 5.54-3.49.97.69 1.88 2.24 1.9 3.4.14 11.93.11 23.87.06 35.81-.01 2.33-1.67 3.95-3.71 3.97-2.13.02-3.78-1.66-3.8-4.08-.04-5.97-.01-11.94-.01-17.91z" fill="#f05a24" data-color="1"></path>
        <path d="M328.85 41.06c.13 2.54-1.97 4.31-4.25 4.48-2.31.17-4.43-1.93-4.5-4.28-.06-2.39 1.87-4.39 4.3-4.43 2.48-.06 4.41 1.78 4.45 4.23z" fill="#f05a24" data-color="1"></path>
    </g>
</svg>